<?xml version="1.0" encoding="utf-8"?>
<!-- Generator: Adobe Illustrator 16.0.0, SVG Export Plug-In . SVG Version: 6.00 Build 0)  -->
<!DOCTYPE svg PUBLIC "-//W3C//DTD SVG 1.1//EN" "http://www.w3.org/Graphics/SVG/1.1/DTD/svg11.dtd">
<svg version="1.1"
	 id="Layer_1" xmlns:rdf="http://www.w3.org/1999/02/22-rdf-syntax-ns#" xmlns:cc="http://creativecommons.org/ns#" xmlns:dc="http://purl.org/dc/elements/1.1/"
	 xmlns="http://www.w3.org/2000/svg" xmlns:xlink="http://www.w3.org/1999/xlink" x="0px" y="0px" width="302px" height="204.27px"
	 viewBox="0 0 302 204.27" enable-background="new 0 0 302 204.27" xml:space="preserve">
<g>
	<g transform="matrix(21.955 0 0 -21.955 33.537 118.8)">
		<path fill="#FFFFFF" d="M0,0l2.006,1.165l1.076-1.846H0.378"/>
	</g>
	<g transform="matrix(21.955 0 0 -21.955 197.59 133.74)">
		<path fill="#FFFFFF" d="M0,0l-2.791,4.868l2.006,1.178L2.704,0"/>
	</g>
	<g transform="matrix(21.955 0 0 -21.955 85.247 73.119)">
		<path fill="#FFFFFF" d="M0,0l2.035,1.151l2.239-3.912H2.151H1.57"/>
	</g>
	<path fill="#FFFFFF" d="M-37.166,126.968"/>
</g>
<rect x="3.609" y="133.553" fill="none" width="298" height="60.666"/>
<g enable-background="new    ">
	<path fill="#FFFFFF" d="M4.402,167.348h8.633c0.127,1.439,0.735,2.624,1.825,3.555c1.09,0.932,2.692,1.396,4.809,1.396
		c1.65,0,2.962-0.339,3.936-1.017c0.973-0.678,1.46-1.493,1.46-2.446c0-0.614-0.175-1.122-0.523-1.525
		c-0.35-0.401-0.904-0.725-1.666-0.969c-0.762-0.243-1.373-0.397-1.834-0.461c-0.461-0.063-1.081-0.148-1.86-0.256
		c-2.094-0.322-3.14-0.484-3.14-0.484s-1.019-0.282-3.058-0.849c-2.039-0.565-3.502-1.171-4.391-1.816
		c-0.889-0.645-1.682-1.597-2.38-2.856c-0.698-1.259-1.047-2.713-1.047-4.363c0-3.259,1.216-5.872,3.65-7.84
		c2.433-1.968,5.787-2.951,10.061-2.951c4.21,0,7.548,0.979,10.013,2.936s3.835,4.597,4.11,7.918h-8.315
		c-0.085-0.824-0.238-1.518-0.46-2.078c-0.223-0.561-0.768-1.09-1.635-1.587c-0.868-0.497-2.042-0.746-3.523-0.746
		c-1.566,0-2.798,0.257-3.698,0.771s-1.349,1.2-1.349,2.059c0,0.294,0.042,0.561,0.128,0.802s0.235,0.456,0.449,0.645
		c0.213,0.188,0.433,0.362,0.657,0.52s0.534,0.297,0.928,0.42c0.395,0.123,0.729,0.228,1.001,0.313
		c0.272,0.085,0.645,0.187,1.116,0.305s0.851,0.203,1.141,0.253c0.29,0.051,0.693,0.122,1.21,0.212l1.147,0.202
		c1.904,0.297,3.507,0.651,4.808,1.064c1.301,0.412,2.591,0.989,3.871,1.73c1.28,0.741,2.238,1.736,2.873,2.985
		s0.952,2.763,0.952,4.541c0,3.64-1.344,6.385-4.031,8.236c-2.688,1.852-6.263,2.777-10.728,2.777c-4.676,0-8.326-1-10.95-3
		C5.968,173.743,4.571,170.945,4.402,167.348z"/>
	<path fill="#FFFFFF" d="M37.029,178.012v-44.465h8.125v13.9c2.349-1.988,5.332-2.982,8.95-2.982
		c9.098,0,13.647,5.374,13.647,16.123v17.424h-8.125v-15.33c0-3.809-0.476-6.537-1.428-8.188s-2.878-2.477-5.776-2.477
		c-2.243,0-4.015,0.673-5.316,2.016c-1.302,1.344-1.952,3.201-1.952,5.57v18.408H37.029z"/>
	<path fill="#FFFFFF" d="M70.323,161.571c0-4.761,1.692-8.802,5.078-12.124c3.385-3.321,7.506-4.982,12.362-4.982
		c4.855,0,8.971,1.661,12.346,4.982c3.375,3.322,5.062,7.363,5.062,12.124c0,4.719-1.698,8.76-5.094,12.124
		c-3.396,3.364-7.501,5.047-12.314,5.047c-4.814,0-8.924-1.683-12.331-5.047C72.026,170.331,70.323,166.29,70.323,161.571z
		 M80.987,154.875c-1.904,1.904-2.856,4.137-2.856,6.696c0,2.561,0.952,4.792,2.856,6.696s4.158,2.857,6.76,2.857
		s4.856-0.953,6.76-2.857s2.856-4.136,2.856-6.696c0-2.56-0.952-4.792-2.856-6.696s-4.158-2.857-6.76-2.857
		S82.891,152.971,80.987,154.875z"/>
	<path fill="#FFFFFF" d="M106.98,161.571c0-4.761,1.692-8.802,5.078-12.124c3.385-3.321,7.5-4.982,12.346-4.982
		c5.12,0,9.304,1.713,12.552,5.141s4.872,7.586,4.872,12.474c0,0.529-0.042,1.27-0.127,2.222h-26.375
		c0.698,2.158,1.877,3.835,3.539,5.03c1.661,1.196,3.729,1.794,6.205,1.794c2.031,0,3.729-0.339,5.094-1.016
		c1.365-0.678,2.587-1.746,3.666-3.206l6.824,3.776c-3.555,5.375-8.75,8.062-15.583,8.062c-5.205,0-9.521-1.63-12.949-4.889
		C108.694,170.596,106.98,166.502,106.98,161.571z M115.518,157.858h17.678c-1.65-3.893-4.581-5.84-8.792-5.84
		c-1.947,0-3.719,0.54-5.316,1.619C117.491,154.716,116.301,156.123,115.518,157.858z"/>
	<path fill="#FFFFFF" d="M143.924,161.571c0-4.761,1.688-8.802,5.067-12.124c3.378-3.321,7.502-4.982,12.373-4.982
		c3.592,0,6.791,0.994,9.602,2.982v-13.9h8.125v44.465h-8.125v-2.222c-2.856,1.947-6.062,2.931-9.617,2.952
		c-4.803,0-8.908-1.683-12.314-5.047C145.627,170.331,143.924,166.29,143.924,161.571z M154.599,154.875
		c-1.911,1.904-2.867,4.137-2.867,6.696c0,2.561,0.956,4.792,2.867,6.696c1.912,1.904,4.161,2.857,6.749,2.857
		s4.838-0.953,6.75-2.857c1.911-1.904,2.867-4.136,2.867-6.696c0-2.56-0.956-4.792-2.867-6.696c-1.912-1.904-4.162-2.857-6.75-2.857
		S156.511,152.971,154.599,154.875z"/>
	<path fill="#FFFFFF" d="M183.248,141.735v-8.188h8.188v8.188H183.248z M183.248,178.012v-33.23h8.188v33.23H183.248z"/>
	<path fill="#FFFFFF" d="M194.42,161.571c0-4.761,1.688-8.802,5.066-12.124c3.378-3.321,7.502-4.982,12.373-4.982
		c3.592,0,6.791,0.994,9.602,2.982v-13.9h8.125v44.465h-8.125v-2.222c-2.857,1.947-6.062,2.931-9.617,2.952
		c-4.803,0-8.908-1.683-12.314-5.047S194.42,166.29,194.42,161.571z M205.094,154.875c-1.911,1.904-2.867,4.137-2.867,6.696
		c0,2.561,0.956,4.792,2.867,6.696c1.912,1.904,4.162,2.857,6.75,2.857s4.837-0.953,6.749-2.857
		c1.911-1.904,2.868-4.136,2.868-6.696c0-2.56-0.957-4.792-2.868-6.696c-1.912-1.904-4.161-2.857-6.749-2.857
		S207.006,152.971,205.094,154.875z"/>
	<path fill="#FFFFFF" d="M232.568,161.571c0-4.761,1.689-8.802,5.067-12.124c3.378-3.321,7.503-4.982,12.373-4.982
		c3.591,0,6.791,0.994,9.601,2.982v-2.666h8.125v33.23h-8.125v-2.222c-2.855,1.947-6.062,2.931-9.616,2.952
		c-4.804,0-8.908-1.683-12.314-5.047C234.272,170.331,232.568,166.29,232.568,161.571z M243.244,154.875
		c-1.912,1.904-2.867,4.137-2.867,6.696c0,2.561,0.955,4.792,2.867,6.696s4.161,2.857,6.749,2.857s4.837-0.953,6.749-2.857
		s2.867-4.136,2.867-6.696c0-2.56-0.955-4.792-2.867-6.696s-4.161-2.857-6.749-2.857S245.156,152.971,243.244,154.875z"/>
	<path fill="#FFFFFF" d="M270.592,167.348h8.633c0.127,1.439,0.734,2.624,1.824,3.555c1.09,0.932,2.692,1.396,4.809,1.396
		c1.65,0,2.962-0.339,3.936-1.017c0.973-0.678,1.46-1.493,1.46-2.446c0-0.614-0.175-1.122-0.523-1.525
		c-0.35-0.401-0.904-0.725-1.666-0.969c-0.762-0.243-1.372-0.397-1.834-0.461c-0.461-0.063-1.081-0.148-1.86-0.256
		c-2.094-0.322-3.14-0.484-3.14-0.484s-1.019-0.282-3.058-0.849c-2.039-0.565-3.502-1.171-4.391-1.816
		c-0.889-0.645-1.683-1.597-2.381-2.856c-0.698-1.259-1.047-2.713-1.047-4.363c0-3.259,1.216-5.872,3.649-7.84
		c2.433-1.968,5.786-2.951,10.062-2.951c4.21,0,7.548,0.979,10.013,2.936s3.835,4.597,4.11,7.918h-8.315
		c-0.085-0.824-0.238-1.518-0.46-2.078c-0.223-0.561-0.768-1.09-1.635-1.587s-2.042-0.746-3.523-0.746
		c-1.565,0-2.798,0.257-3.697,0.771s-1.349,1.2-1.349,2.059c0,0.294,0.042,0.561,0.128,0.802s0.234,0.456,0.449,0.645
		c0.213,0.188,0.432,0.362,0.656,0.52s0.533,0.297,0.928,0.42c0.396,0.123,0.729,0.228,1.002,0.313
		c0.272,0.085,0.645,0.187,1.115,0.305c0.472,0.118,0.852,0.203,1.141,0.253c0.29,0.051,0.693,0.122,1.211,0.212l1.146,0.202
		c1.904,0.297,3.508,0.651,4.809,1.064c1.301,0.412,2.592,0.989,3.871,1.73c1.28,0.741,2.238,1.736,2.873,2.985
		s0.951,2.763,0.951,4.541c0,3.64-1.344,6.385-4.03,8.236c-2.688,1.852-6.263,2.777-10.728,2.777c-4.676,0-8.326-1-10.949-3
		C272.156,173.743,270.76,170.945,270.592,167.348z"/>
</g>
</svg>
